HIERARCHY
ROOT hip
{
	OFFSET 0.000000 0.000000 0.000000 
	CHANNELS 6 Xposition Yposition Zposition Xrotation Zrotation Yrotation
	JOINT abdomen
	{
		OFFSET 0.000000 3.402643 0.000000 
		CHANNELS 3 Xrotation Zrotation Yrotation
		JOINT chest
		{
			OFFSET 0.000000 8.438565 -0.680529 
			CHANNELS 3 Xrotation Zrotation Yrotation
			JOINT neck
			{
				OFFSET 0.000000 10.207942 -0.272212 
				CHANNELS 3 Xrotation Zrotation Yrotation
				JOINT head
				{
					OFFSET 0.000000 3.130431 0.000000 
					CHANNELS 3 Xrotation Zrotation Yrotation
					End Site
					{
						OFFSET 0.000000 3.130435 0.000000 
					}
				}
			}
			JOINT lCollar
			{
				OFFSET 3.470700 6.669187 -0.816635 
				CHANNELS 3 Yrotation Zrotation Xrotation
				JOINT lShldr
				{
					OFFSET 3.198488 0.000000 0.000000 
					CHANNELS 3 Zrotation Yrotation Xrotation
					JOINT lForeArm
					{
						OFFSET 10.139888 0.000000 0.000000 
						CHANNELS 3 Yrotation Zrotation Xrotation
						JOINT lHand
						{
							OFFSET 8.370511 0.000000 0.000000 
							CHANNELS 3 Zrotation Yrotation Xrotation
							End Site
							{
								OFFSET 4.083176 0.000000 0.000000 
							}
						}
					}
				}
			}
			JOINT rCollar
			{
				OFFSET -3.470700 6.669187 -0.816635 
				CHANNELS 3 Yrotation Zrotation Xrotation
				JOINT rShldr
				{
					OFFSET -3.198488 0.000000 0.000000 
					CHANNELS 3 Zrotation Yrotation Xrotation
					JOINT rForeArm
					{
						OFFSET -10.139888 0.000000 0.000000 
						CHANNELS 3 Yrotation Zrotation Xrotation
						JOINT rHand
						{
							OFFSET -8.370511 0.000000 0.000000 
							CHANNELS 3 Zrotation Yrotation Xrotation
							End Site
							{
								OFFSET -4.083176 0.000000 0.000000 
							}
						}
					}
				}
			}
		}
	}
	JOINT lThigh
	{
		OFFSET 5.308129 -1.633274 1.361059 
		CHANNELS 3 Xrotation Zrotation Yrotation
		JOINT lShin
		{
			OFFSET -2.041588 -20.007561 0.000000 
			CHANNELS 3 Xrotation Zrotation Yrotation
			JOINT lFoot
			{
				OFFSET 0.000000 -19.190928 -1.224953 
				CHANNELS 3 Xrotation Yrotation Zrotation
				End Site
				{
					OFFSET 0.000000 -2.449906 4.627600 
				}
			}
		}
	}
	JOINT rThigh
	{
		OFFSET -5.308129 -1.633274 1.361059 
		CHANNELS 3 Xrotation Zrotation Yrotation
		JOINT rShin
		{
			OFFSET 2.041588 -20.007561 0.000000 
			CHANNELS 3 Xrotation Zrotation Yrotation
			JOINT rFoot
			{
				OFFSET 0.000000 -19.190928 -1.224953 
				CHANNELS 3 Xrotation Yrotation Zrotation
				End Site
				{
					OFFSET 0.000000 -2.449906 4.627600 
				}
			}
		}
	}
}
MOTION
Frames: 20
Frame Time: 0.016667
1.899473 59.202320 2.949202 -6.666168 -0.375459 -31.309380 0.243721 0.117187 -0.205078 -1.093470 0.029296 0.546880 -1.464785 -0.490251 18.701799 -17.357241 -7.318800 16.928667 -4.773854 -2.476514 7.886799 -25.101107 39.335461 -23.548166 -26.596647 1.430573 2.963600 8.085008 4.696274 -15.054990 8.257544 5.587521 2.212396 15.931322 -8.871869 -8.075320 21.182165 -1.959865 4.697503 -8.103680 -4.708190 -15.018762 -15.015235 -2.899992 -1.203642 17.192787 -0.634491 2.347663 21.686266 -1.286019 -10.610638 0.497595 -7.023674 0.116454 6.040258 -0.108313 3.556031 26.712156 6.446307 -5.212607 
1.835193 59.290001 2.902072 -6.749738 -0.333499 -31.377554 0.272897 0.126952 -0.244140 -0.985749 0.058591 0.566416 -2.034090 -3.082271 15.804559 -18.500801 -4.504644 19.427275 -4.672966 -2.752700 7.713958 -21.121225 40.228809 -13.769814 -32.047726 1.475267 2.610694 8.085008 4.696274 -15.054990 8.597664 4.753565 4.800508 12.840242 -6.975753 -3.441898 24.815382 -3.436158 3.926920 -8.103680 -4.708190 -15.018762 -15.794640 -0.820051 2.175094 15.362405 -0.704952 3.425575 21.465397 -1.364493 -10.663272 0.829641 -7.132974 0.368626 6.237699 -0.186500 3.951073 27.332647 5.752170 -5.264280 
1.742245 59.416447 2.903879 -6.689301 -0.191523 -31.494364 0.253407 0.117186 -0.244140 -0.966178 0.058590 0.605478 -1.868794 -3.627295 15.275259 -19.621294 -4.415597 19.983540 -4.907311 -3.002551 8.150393 -18.478518 39.758556 -7.922928 -35.217995 2.133487 3.287908 8.085008 4.696274 -15.054990 8.996970 4.855345 4.853581 9.367765 -5.281471 1.870523 27.214148 -4.377879 4.303980 -8.103680 -4.708190 -15.018762 -15.107815 -0.507870 1.885948 12.335063 -0.673177 3.838799 21.549118 0.079804 -10.282940 0.956674 -7.329527 0.671434 7.077883 -0.225727 3.930736 27.879692 5.298847 -5.373900 
1.649303 59.542889 2.905686 -6.624797 -0.041583 -31.611341 0.243701 0.107421 -0.234375 -0.956372 0.058590 0.644541 -1.703247 -4.174732 14.746751 -20.749973 -4.326652 20.539095 -5.138680 -3.255243 8.576694 -15.947416 39.095230 -2.168892 -38.397591 2.753554 3.998591 8.085008 4.696274 -15.054990 9.385543 4.966793 4.906426 6.071562 -3.288862 7.057854 29.620451 -5.311475 4.717462 -8.103680 -4.708190 -15.018762 -14.417532 -0.195296 1.580534 9.284856 -0.655698 4.250122 21.630987 1.539327 -9.882264 1.083474 -7.533288 0.963507 7.928197 -0.265005 3.900451 28.416170 4.842202 -5.479293 
1.563892 59.684776 2.950659 -6.454110 0.141442 -31.572351 0.233881 0.107421 -0.263671 -0.946820 0.039060 0.654303 -1.747070 -4.486221 14.292078 -21.775179 -4.191621 20.790041 -5.374447 -3.475700 8.740067 -15.242186 37.639572 0.325298 -39.198856 4.423667 5.616575 8.085008 4.696274 -15.054990 9.607914 5.005411 4.904005 3.841456 -1.444126 10.698079 30.049543 -5.822917 5.150066 -8.103680 -4.708190 -15.018762 -13.752602 -0.439590 1.526256 6.883041 -0.585895 4.155229 21.207153 2.364701 -8.933522 0.917959 -7.575319 1.324437 9.818913 -0.284522 3.790158 28.770836 4.525604 -5.380444 
1.478484 59.826660 2.995633 -6.292938 0.324620 -31.533743 0.233844 0.107421 -0.283203 -0.947043 0.019530 0.654300 -1.794951 -4.798856 13.828074 -22.806175 -4.047555 21.050844 -5.599983 -3.695064 8.893688 -14.622796 36.165371 2.746699 -40.039227 6.080876 7.256464 8.085008 4.696274 -15.054990 9.820555 5.043183 4.900811 1.731116 0.547511 14.269276 30.477745 -6.314910 5.581669 -8.103680 -4.708190 -15.018762 -13.086119 -0.664032 1.429123 4.492232 -0.554671 4.084925 20.776529 3.208726 -7.992304 0.761662 -7.612965 1.675870 11.719546 -0.313882 3.659494 29.123558 4.222960 -5.315651 
1.399912 59.949108 3.102780 -6.006614 0.450457 -31.329197 0.233618 0.126951 -0.341796 -0.947164 0.009765 0.595705 -2.133378 -4.859993 13.623762 -23.647301 -3.722847 20.905243 -5.773016 -3.843945 8.920912 -14.777122 35.312386 3.468788 -41.606483 6.506164 7.820081 8.085008 4.696274 -15.054990 9.803129 5.001284 4.785362 0.652236 1.700803 16.681831 29.263412 -6.419633 5.814061 -8.103680 -4.708190 -15.018762 -12.746685 -1.512851 1.930196 3.990474 -0.595674 3.529852 19.801573 2.368432 -7.307203 0.322883 -7.380741 1.913744 14.430849 -0.297658 3.580988 29.272104 4.098116 -5.036829 
1.321341 60.071556 3.209933 -5.714247 0.568532 -31.114971 0.233376 0.146481 -0.390624 -0.957031 0.000000 0.537109 -2.468267 -4.911867 13.408907 -24.486618 -3.388368 20.760374 -5.935580 -3.992487 8.958594 -14.936954 34.456142 4.199573 -43.166733 6.921364 8.399156 8.085008 4.696274 -15.054990 9.784741 4.961135 4.679482 -0.371253 2.897885 19.072275 28.059162 -6.534288 6.045293 -8.103680 -4.708190 -15.018762 -12.418722 -2.372301 2.437006 3.477162 -0.623604 2.946314 18.833006 1.530785 -6.671117 -0.126547 -7.138077 2.190756 17.163610 -0.285955 3.435775 29.401066 4.001105 -4.782918 
1.244674 60.141373 3.406015 -5.279327 0.627958 -30.978569 0.233102 0.166011 -0.439451 -0.976563 0.000000 0.498047 -2.987958 -4.875839 13.309967 -25.224672 -2.917069 20.564957 -5.978606 -4.030036 8.967453 -15.292855 34.264942 4.241021 -43.798180 7.035060 8.542609 8.085008 4.696274 -15.054990 9.590718 4.852004 4.092654 -0.562003 3.060421 20.963310 25.923531 -6.275496 5.900287 -8.103680 -4.708190 -15.018762 -11.960779 -3.221910 2.964271 3.625412 -0.692399 2.460229 18.693960 0.313979 -6.533300 -0.644288 -6.785119 2.293597 19.711123 -0.217879 3.303729 29.485722 4.094950 -4.346920 
1.168002 60.211178 3.602106 -4.849133 0.695932 -30.842300 0.232825 0.185540 -0.478513 -1.005859 0.000000 0.449219 -3.496595 -4.830067 13.221584 -25.956188 -2.444555 20.370541 -6.011274 -4.067100 8.986849 -15.630875 34.080711 4.279370 -44.429688 7.145090 8.682381 8.085008 4.696274 -15.054990 9.384424 4.758104 3.516346 -0.751677 3.242249 22.843470 23.796484 -6.008080 5.771629 -8.103680 -4.708190 -15.018762 -11.498080 -4.070562 3.484243 3.774237 -0.761333 1.993529 18.528887 -0.932003 -6.385091 -1.169490 -6.416469 2.384193 22.278646 -0.149932 3.147164 29.587233 4.221411 -3.927087 
1.065550 60.226624 3.889456 -4.269830 0.737179 -30.930550 0.223060 0.185540 -0.478513 -1.074142 0.009765 0.449220 -4.019620 -4.687465 13.218351 -26.560595 -1.978894 20.266251 -5.912621 -3.955666 8.754397 -15.523799 34.427273 4.999847 -42.437450 7.433997 8.713819 8.085008 4.696274 -15.054990 9.085382 4.618337 2.358840 -0.420063 2.634413 24.727251 21.258224 -5.250524 5.028984 -8.103680 -4.708190 -15.018762 -10.786972 -4.519658 3.675177 4.069289 -0.791100 1.755114 19.367155 -1.584339 -6.204161 -1.503327 -6.140527 2.332545 23.673141 -0.101369 2.984919 29.632093 4.319068 -3.519167 
0.963089 60.242065 4.176814 -3.681024 0.778266 -31.028442 0.213213 0.195306 -0.478513 -1.142425 0.019531 0.449222 -4.542658 -4.544860 13.216003 -27.153303 -1.503548 20.153599 -5.822187 -3.847536 8.531377 -15.415664 34.774204 5.710048 -40.446083 7.731607 8.734683 8.085008 4.696274 -15.054990 8.784334 4.484277 1.209414 -0.107479 2.008984 26.604015 18.717295 -4.465478 4.321363 -8.103680 -4.708190 -15.018762 -10.093679 -4.959059 3.852853 4.358130 -0.800140 1.517186 20.202646 -2.251376 -6.057224 -1.823468 -5.842181 2.271177 25.076151 -0.052997 2.853823 29.667036 4.394425 -3.084182 
0.788498 60.206059 4.522748 -2.930108 0.800058 -31.419424 0.193934 0.175776 -0.449217 -1.239725 0.058592 0.498057 -4.847849 -4.352797 13.320064 -27.736147 -1.090313 20.247934 -5.633191 -3.608623 7.677526 -14.736630 35.459671 7.611390 -37.423153 7.745201 8.487177 8.085008 4.696274 -15.054990 8.450222 4.106741 0.231930 0.713931 0.772391 27.683136 16.435396 -3.602673 3.478809 -8.103680 -4.708190 -15.018762 -9.143811 -4.869842 3.618029 4.564048 -0.761366 1.518497 21.639099 -2.246006 -5.816413 -1.873148 -5.650143 2.101580 24.922884 -0.062580 2.768031 29.702545 4.207382 -3.028829 
0.613895 60.170055 4.868684 -2.174752 0.829990 -31.800503 0.174523 0.175777 -0.410154 -1.337052 0.087887 0.546889 -5.150071 -4.151386 13.424292 -28.317513 -0.677629 20.333433 -5.440192 -3.365607 6.812616 -14.002066 36.122410 9.565389 -34.407269 7.738750 8.237315 8.085008 4.696274 -15.054990 8.115153 3.743198 -0.736420 1.510809 -0.494701 28.747446 14.170719 -2.710894 2.682289 -8.103680 -4.708190 -15.018762 -8.200171 -4.763907 3.384625 4.769143 -0.722398 1.529739 23.078262 -2.250797 -5.559676 -1.910804 -5.450299 1.942557 24.768881 -0.072390 2.701732 29.738424 4.012669 -2.983696 
0.358037 60.086197 5.240813 -1.313354 0.791270 -32.435043 0.145472 0.156247 -0.371092 -1.443790 0.146476 0.595726 -5.336872 -3.919392 13.665059 -28.763958 -0.402404 20.527845 -5.276142 -3.153719 5.558480 -13.201859 36.852776 11.681634 -30.113737 7.270360 7.518161 8.085008 4.696274 -15.054990 7.859662 3.185735 -1.337398 2.891165 -2.329329 28.513414 12.323719 -1.782648 1.848665 -8.103680 -4.708190 -15.018762 -6.974432 -4.341516 3.035694 4.513714 -0.663656 1.601007 24.651260 -2.141146 -5.273778 -1.628262 -5.343458 1.698991 23.177618 -0.111225 2.642957 29.742065 3.611248 -3.138825 
0.102173 60.002335 5.612947 -0.461821 0.769284 -33.069733 0.116395 0.136716 -0.332030 -1.550537 0.195300 0.644561 -5.521737 -3.687796 13.906058 -29.224590 -0.118747 20.712925 -5.107543 -2.930318 4.293738 -12.349167 37.559460 13.839655 -25.838461 6.755410 6.831453 8.085008 4.696274 -15.054990 7.602858 2.623998 -1.938608 4.285297 -4.154552 28.239618 10.495211 -0.844362 1.042808 -8.103680 -4.708190 -15.018762 -5.765196 -3.912642 2.716108 4.260474 -0.594599 1.691688 26.239969 -2.076119 -4.960637 -1.355019 -5.225201 1.466116 21.586655 -0.146449 2.576509 29.769222 3.216818 -3.322572 
-0.190826 59.868084 6.003709 0.364535 0.699012 -33.664867 0.077476 0.126951 -0.292968 -1.628223 0.234360 0.644566 -5.721840 -3.457203 14.107697 -29.469625 -0.146037 20.830133 -5.050367 -3.106265 3.379631 -11.916755 37.938889 14.507749 -19.836411 6.130776 5.817513 8.085008 4.696274 -15.054990 7.551335 2.449136 -2.617257 5.670546 -6.664626 27.120384 8.513404 -0.216152 0.470620 -8.103680 -4.708190 -15.018762 -4.318937 -3.306278 2.356757 3.675659 -0.584974 1.902886 27.721434 -1.782325 -4.827767 -0.808789 -5.235668 1.145767 19.067146 -0.198346 2.503699 29.769520 2.887042 -3.337319 
-0.483821 59.733829 6.394472 1.186685 0.637562 -34.269943 0.048370 0.107421 -0.244140 -1.705862 0.273420 0.654336 -5.908143 -3.217510 14.309603 -29.714771 -0.173284 20.947342 -4.990262 -3.275389 2.474585 -11.453953 38.313194 15.207568 -13.859327 5.395459 4.886088 8.085008 4.696274 -15.054990 7.486836 2.265412 -3.305452 7.104476 -9.140282 25.934626 6.530447 0.431128 -0.074838 -8.103680 -4.708190 -15.018762 -2.864684 -2.699944 2.020900 3.071350 -0.565896 2.144256 29.189968 -1.517390 -4.706872 -0.273036 -5.263031 0.843464 16.539196 -0.237058 2.396232 29.805702 2.563485 -3.371142 
-0.765284 59.541325 6.778153 1.970114 0.627216 -34.572647 0.019198 0.097656 -0.195312 -1.725320 0.292951 0.625042 -6.231456 -3.202030 14.065324 -29.900267 -0.273374 21.074432 -5.061523 -3.891653 2.018030 -11.644846 38.282352 13.064610 -7.843001 5.149286 4.141602 8.085008 4.696274 -15.054990 7.456023 2.624604 -3.801560 8.175947 -12.105375 23.567278 4.072652 0.079917 0.110861 -8.103680 -4.708190 -15.018762 -1.625360 -2.161450 1.695929 3.414756 -0.322524 2.132421 29.325544 -0.083974 -3.743009 0.263424 -5.373342 0.487103 14.069854 -0.236908 2.306902 29.689903 2.440648 -3.278093 
-1.046738 59.348820 7.161825 2.769094 0.608973 -34.865490 -0.000210 0.087890 -0.136719 -1.754614 0.302717 0.605512 -6.548031 -3.195800 13.830248 -30.082676 -0.364186 21.201591 -5.132915 -4.516443 1.561251 -11.821514 38.252132 10.936399 -1.825079 4.831456 3.428212 8.085008 4.696274 -15.054990 7.431282 2.974725 -4.297934 9.374217 -15.020090 21.114120 1.624699 -0.271196 0.272505 -8.103680 -4.708190 -15.018762 -0.388601 -1.614233 1.382648 3.754307 -0.078513 2.122180 29.448395 1.372414 -2.808749 0.810642 -5.503332 0.126606 11.570415 -0.248131 2.225696 29.574795 2.304920 -3.196048 
